<svg xmlns="http://www.w3.org/2000/svg" height="18" width="18" viewBox="0 0 18 18"><title>18 glasses 2</title><g stroke-linecap="round" stroke-width="1" fill="none" stroke="currentColor" stroke-linejoin="round" class="nc-icon-wrapper"><line x1="7.75" y1="10.25" x2="10.25" y2="10.25" data-color="color-2"></line><path d="M6.399,4.115c-1.08-.76-2.588-.283-3.034,.961l-1.503,4.328c-.073,.211-.111,.433-.111,.656v.14" data-color="color-2"></path><path d="M11.601,4.115c1.08-.76,2.588-.283,3.034,.961l1.503,4.328c.073,.211,.111,.433,.111,.656v.14" data-color="color-2"></path><path d="M12.889,14.25h.79c1.337,0,2.437-1.051,2.497-2.386l.07-1.545c.039-.854-.643-1.568-1.498-1.568h-2.929c-.855,0-1.537,.714-1.498,1.568l.07,1.545c.061,1.335,1.161,2.386,2.497,2.386Z"></path><path d="M5.111,14.25h-.79c-1.337,0-2.437-1.051-2.497-2.386l-.07-1.545c-.039-.854,.643-1.568,1.498-1.568h2.929c.855,0,1.537,.714,1.498,1.568l-.07,1.545c-.061,1.335-1.161,2.386-2.497,2.386Z"></path></g></svg>